<?xml version="1.0" encoding="UTF-8" standalone="no"?>
<svg width="433px" height="236px" viewBox="0 0 433 236" version="1.1" xmlns="http://www.w3.org/2000/svg" xmlns:xlink="http://www.w3.org/1999/xlink">
    <!-- Generator: Sketch 3.8.1 (29687) - http://www.bohemiancoding.com/sketch -->
    <title>American_Sign_Language_ASL</title>
    <desc>Created with Sketch.</desc>
    <defs></defs>
    <g id="Page-1" stroke="none" stroke-width="1" fill="none" fill-rule="evenodd">
        <g id="American_Sign_Language_ASL" fill="#201B17">
            <path d="M183.7,86.8 C184.7,86.8 186.2,86.6 188.5,86.2 C190.7,85.8 192.3,85.6 193.2,85.6 C195.9,85.6 198.1,86 199.9,86.7 C201.7,87.4 203.1,89 204.1,91.5 C206.3,89.6 209.5,88.6 213.6,88.6 C216,88.6 218.4,88.9 220.7,89.5 C223,90.1 224.6,90.5 225.6,90.8 C230.2,97.8 232.5,105.7 232.5,114.5 C232.5,118.9 232,122.9 231.1,126.5 C233,133.5 234.4,138.6 235.1,141.6 C235.8,144.6 236.2,148.3 236.2,152.7 C234.3,158.3 230.5,164.4 224.9,171.1 C219.3,177.8 214.1,184 209.2,189.9 C206.8,190.9 205.1,192.7 204.1,195.4 C203.1,200.3 202.2,205 201.2,209.6 L201.9,220.9 C198.3,226 193.6,229.5 188,231.3 C182.4,233.1 175.8,234 168.3,234 C163.7,234 158.2,232.6 151.9,229.6 C145.6,226.7 141.8,225.1 140.6,224.9 L139.2,223.1 L139.2,216.4 C139.2,214.1 139.3,211.7 139.6,209.3 C139.6,204.2 139.3,200.2 138.7,197.4 C138.1,194.6 136.4,191.8 133.8,188.8 C131.6,182.7 129.8,176.4 128.3,169.9 C126.9,163.3 126.1,156.8 126.1,150.2 C126.1,141.2 127.8,132.9 131.2,125.4 C134.1,122 137,118.5 140,114.8 C143.9,110.9 148,109 152.4,109 C152.9,106.6 154.2,104.3 156.2,102.3 C158.2,100.3 160.1,98.7 161.7,97.8 C163.3,96.9 165.2,96.3 167.3,96.3 L172.1,96.3 C175.3,96.3 177.2,95 177.9,92.3 C178.6,89.6 180.6,87.7 183.7,86.8 L183.7,86.8 Z M183.7,88.9 C181.5,89.9 180.1,91.7 179.5,94.2 C178.9,96.7 178.6,98.7 178.6,100.2 C180.3,113.6 182,126.8 183.7,139.9 L185.2,138.8 L186.6,142.1 C187.6,142.3 189.3,142.5 191.7,142.5 C193.4,142.5 194.7,142 195.7,141 C195.9,139.3 195.6,138.2 194.6,137.7 C193.6,137.2 192.3,137 190.6,137 C188.2,137 186.6,136.6 185.9,135.9 C187.3,134.4 188.4,133.4 189.2,132.6 C194.3,131.6 197.3,132.8 198.3,136.2 L199.7,128.2 C198.7,126.3 197.2,125.3 195,125.3 C191.6,126 189.3,126.4 188.1,126.4 C186.9,126.4 185.9,125.7 185.2,124.2 L192.8,124.2 C189.7,119.6 187.2,115.8 185.3,112.9 C183.5,110 182.6,108 182.6,107.1 C182.6,105.4 183.1,103.6 184.2,101.6 C185.3,99.7 186.5,97.8 187.7,96.1 C189.6,94.2 192.6,93.2 196.4,93.2 C197.9,93.2 199,93.3 199.7,93.6 L199.7,91.4 C199,90.2 198,89.3 196.8,88.8 C195.6,88.3 194.3,88.1 192.8,88.1 C191.8,88.1 190.3,88.2 188.1,88.4 C185.9,88.8 184.5,88.9 183.7,88.9 L183.7,88.9 Z M210,90.8 C208.6,91 207.5,91.9 206.7,93.3 C206,94.8 205.6,96.3 205.6,98 C208,100.4 211.8,102.8 217.1,105.1 C222.3,107.4 225.8,109.4 227.5,111.1 C227.5,108.7 227.4,106.2 227.3,103.8 C227.2,101.4 226.6,98.9 225.6,96.3 C224.6,93.8 223.3,92.2 221.6,91.6 C219.9,91 217.5,90.7 214.3,90.7 L210,90.7 L210,90.8 Z M195.8,96.6 C193.8,97.1 192.4,97.9 191.6,99.1 C190.7,100.3 189.9,102.1 189.2,104.6 C193.6,108.5 198.7,110.4 204.5,110.4 C205.2,109.9 205.8,109.2 206.3,108.2 C206.1,108 205.9,107.7 205.9,107.5 C204.9,107.7 204.1,108 203.4,108.2 C204.4,106.8 205.3,105.3 206.3,103.8 C203.4,100.4 201.3,98.3 200.1,97.4 C198.9,96.6 197.5,96.4 195.8,96.6 L195.8,96.6 Z M167.7,98.1 C164.3,99.1 161.5,100.3 159.3,101.9 C157.1,103.5 155.9,105.6 155.7,108.3 C159.6,113.7 162.2,119.7 163.5,126.4 C164.8,133.1 165.5,140.8 165.5,149.5 L167.7,151.7 C168.9,149.3 170.2,146.7 171.7,144.1 C173.1,143.4 174.6,143 176.1,143 C177.5,143 178.9,143.4 180.1,144.1 C180.1,135.1 179.8,127.3 179.2,120.8 C178.6,114.2 177.7,108.9 176.4,104.9 C175.2,100.9 173.8,98.8 172.2,98.7 C170.7,98.5 169.2,98.3 167.7,98.1 L167.7,98.1 Z M185.9,105.7 C185.9,109.3 187.4,112.8 190.4,115.9 C193.4,119.1 196,121.5 198.1,123.2 C200.2,124.9 202.9,125.9 206.3,126.1 C209.7,126.3 212,127.2 213.2,128.6 C212.5,129.1 211.3,129.3 209.6,129.3 C207.7,129.3 206.3,129.5 205.6,130 C205.1,131 205.4,132.1 206.5,133.5 C207.6,134.8 208.8,136.1 210,137.3 C209.3,138.3 208.4,138.4 207.3,137.6 C206.2,136.9 205.3,136.9 204.6,137.6 C204.6,141 205.2,144.1 206.2,146.9 C207.3,149.7 209.1,152.5 211.5,155.5 C208.8,155.5 206.7,153.9 205.3,150.7 C203.8,147.6 202.7,144.9 202,142.7 C196.9,142.7 192.2,144.9 188,149.3 C183.7,153.7 179.7,157.9 175.8,162.1 C174.6,164.3 174,167.5 174,171.6 C174,173.5 174.1,175.4 174.4,177.2 C174.6,179 174.9,180.8 175.1,182.5 C173.2,181.3 171.3,180 169.6,178.5 C168.9,176.3 168.5,173.5 168.5,170.1 C168.5,167.4 169,165.5 169.9,164.2 C169.9,166.4 170.3,168 171,168.9 C171,166.7 171.4,164.6 172.1,162.7 C172.8,160.8 173.5,158.8 174.3,156.9 L165.6,154.7 C165.1,155.7 164.1,156.4 162.5,156.9 C160.9,157.4 159.9,157.9 159.4,158.3 C155.3,159 152,157.5 149.6,153.6 C147.4,148.5 145.8,145 144.8,143 C143.6,142.5 141.4,142.3 138.2,142.3 C134.3,142.5 131.5,142.7 129.8,142.7 C129.5,144.1 129.4,146.1 129.4,148.5 C129.4,152.6 129.6,156.3 130.1,159.4 C130.6,162.5 131.3,166.1 132.3,170.2 C133.3,174.2 134.6,178.7 136.1,183.7 C137.7,188.7 139.6,192 141.9,193.7 C144.2,195.4 146.5,196.5 148.6,197 C150.8,197.5 152.9,197.7 154.8,197.7 C156.5,197.7 158.4,197.5 160.6,197.1 C162.8,196.7 164.4,196.4 165.4,196.2 C166.4,196.2 167.6,195.7 169.2,194.7 C170.8,193.7 171.9,193.5 172.7,194 C171.7,195.9 171.2,198.4 171,201.3 C170.9,204.2 170.9,205.9 171.2,206.4 C171.7,203.5 172.1,201 172.5,198.9 C172.9,196.8 173.9,195.1 175.6,193.6 C178,192.9 179.5,193.1 180,194.3 L177.8,214.7 C177.8,220.5 178.8,225 180.7,228.2 C182.6,228.4 184.7,227.8 186.9,226.2 C189.1,224.6 190.7,223.5 191.7,222.7 C190.7,220.5 190.2,217.7 190.2,214.3 C190.2,212.6 190.4,209.9 190.9,206.3 C191.4,202.7 191.6,200 191.6,198.3 C188.7,197.8 186.2,197.5 184.3,197.4 C182.4,197.3 181.2,196.2 180.7,194.3 C181.7,193.8 183.4,193.9 186,194.7 C188.5,195.4 190.4,195.4 191.6,194.7 C187.7,194.7 184.8,194.4 182.8,193.8 C180.9,193.2 178.9,191.6 177,188.9 C176.8,187.9 176.6,186.8 176.6,185.6 C178.5,186.8 180.5,188.1 182.5,189.4 C184.4,190.7 187.4,191.4 191.2,191.4 C193.6,191.4 196.3,190.8 199.2,189.8 C202.1,188.7 204.9,187.4 207.6,186 C208.8,184.1 213.2,178.8 220.7,170.2 C228.2,161.6 232.5,154.3 233.5,148.5 C233.3,147.8 232.2,143.1 230.2,134.6 C228.3,126.1 226.6,120 225.1,116.4 L221.8,119.7 C220.8,120.4 219.7,121.1 218.3,121.9 C217,122.6 215.8,123 214.8,123 C213.8,123 212.7,122.3 211.5,120.8 C212.9,118.6 214.2,117 215.3,116.1 C216.4,115.1 217.5,114.5 218.7,114.3 L213.2,120.9 C216.8,119.2 219.4,117.8 220.9,116.7 C222.3,115.6 223.1,113.8 223.1,111.4 L210.3,105.2 C210.1,105.5 209.4,106.6 208.3,108.7 C207.2,110.8 205.9,112.1 204.5,112.5 C201.3,113.2 198.1,112.9 194.8,111.4 C191.5,110 188.8,108 186.6,105.6 C186.1,102.5 187,100.1 189.1,98.7 C188.4,99 187.2,101.3 185.9,105.7 L185.9,105.7 Z M154.2,111.5 C152.5,111 150.7,111.3 148.9,112.2 C147.1,113.2 145.3,114.1 143.6,115.1 C143.1,116.8 142.6,118.5 142.2,120.2 L141.1,118.4 C139.2,119.6 137.7,120.8 136.7,121.9 C135.7,123 134.4,125 132.7,127.9 C134.1,129.1 136.1,130 138.5,130.5 C137.5,129 136.7,127.5 136,125.7 C140.6,127.2 143.8,130.3 145.5,135.2 C147.2,140.1 148.8,144.6 150.2,148.7 C151.7,152.8 153.6,154.9 156.1,154.9 L156.5,151.3 C156.7,150.6 157.3,149.4 158.1,147.8 C158.9,146.2 160.4,145.4 162.3,145.4 C162.3,141.8 162.1,137.7 161.7,133.4 C161.3,129 160.2,124.3 158.2,119.2 L154.2,111.5 L154.2,111.5 Z M131.2,130.9 L129.8,140.4 L143.6,140.8 C143.9,137.6 142.5,135.3 139.6,133.9 C136.7,132.8 133.9,131.8 131.2,130.9 L131.2,130.9 Z M192.8,134.9 L190.3,134.5 L192.8,134.9 L192.8,134.9 Z M173.2,145.4 C174.7,146.4 176,146.4 177.2,145.4 C176.7,145.4 176,145.2 175,144.7 C174,144.2 173.4,144.5 173.2,145.4 L173.2,145.4 Z M183.7,146.2 L183.7,148.7 L185.9,147.6 C185.2,147.1 184.5,146.6 183.7,146.2 L183.7,146.2 Z M173.2,147.6 C172,147.4 171.3,147.9 171,149.3 C170.8,150.6 170.5,151.4 170.3,151.7 C171.3,152.2 173,152.4 175.4,152.4 C176.8,152.4 178.3,152.2 179.8,151.7 L179.8,150.3 C179.8,148.6 179,147.7 177.3,147.7 C175.7,147.6 174.4,147.6 173.2,147.6 L173.2,147.6 Z M159.7,149.8 L159.3,153.8 C161.5,154.3 162.6,153.1 162.6,150.2 L159.7,149.8 L159.7,149.8 Z M171.4,174.6 L171,172.4 L171.4,176 L171.4,174.6 L171.4,174.6 Z M198.3,199.8 L199.7,195.8 L198.3,199.8 L198.3,199.8 Z M168.4,197.9 L164.8,199.4 L168.4,197.9 L168.4,197.9 Z M193.6,220.9 C193.6,217.5 193.9,213 194.5,207.4 C195.1,201.8 195.4,198.7 195.4,197.9 C193.9,203 193.2,208.6 193.2,214.7 C193.2,217.6 193.3,219.7 193.6,220.9 L193.6,220.9 Z M175.7,198.7 C173.5,206 172.4,213.5 172.4,221.3 L172.4,225.7 C172.9,227.6 173.1,229.1 173.1,230.1 C174.6,229.9 176.1,229.5 177.9,229 C176.2,226.1 175.4,221.9 175.4,216.6 L175.4,209.9 C175.4,207.6 175.5,205.2 175.8,202.8 L175.8,198.7 L175.7,198.7 Z M141.8,199.4 C143,207.4 143.6,215.2 143.6,222.7 C146,223.4 150,224.9 155.5,227.1 C161,229.3 165.3,230.4 168.4,230.4 L168.4,200.9 C165.5,202.4 163,203.2 160.9,203.4 C158.8,203.7 154.5,204.1 148,204.9 C146.3,204.9 145.3,203.9 145.1,201.8 C144.9,199.7 143.8,198.9 141.8,199.4 L141.8,199.4 Z M164.1,199.8 L162.3,199.4 L164.1,199.8 L164.1,199.8 Z M197.6,206.7 L196.5,217.3 L197.6,206.7 L197.6,206.7 Z M219.5,114.5 L221.3,112.7 L219.5,114.5 L219.5,114.5 Z M169.5,134.9 L177.9,135.3 C176.7,136.8 175,137.5 172.8,137.5 C170.6,137.4 169.5,136.6 169.5,134.9 L169.5,134.9 Z M224.9,118.5 C224.9,120 223.8,121.4 221.6,122.9 C219.4,124.4 218.2,125.2 218,125.4 C217.8,125.2 217,125 215.8,125 C217.8,124.5 219.6,123.7 221.3,122.6 C223,121.6 224.2,120.2 224.9,118.5 L224.9,118.5 Z M152.4,140.3 L161.5,138.8 C160.8,139.5 159.4,140 157.3,140.3 C155.3,140.6 153.6,140.6 152.4,140.3 L152.4,140.3 Z" id="path732_1_"></path>
            <path d="M328.3,0.4 C329.3,0.1 331,0 333.4,0 C335.3,0 337.4,0.4 339.6,1.1 C341.8,1.8 343.8,4.1 345.6,7.8 C347.4,11.6 348.9,18.7 350.2,29.1 C351.4,39.5 352.2,46.1 352.7,48.8 C352.7,57.3 353.7,70.2 355.8,87.6 C357.8,105 358.9,117.3 358.9,124.6 C359.6,126.5 360.3,128.5 361.1,130.4 C362.8,129.4 367.8,127.2 376.2,123.7 C384.6,120.2 390.7,116.6 394.6,112.9 C397.3,111.7 400.7,110.5 405,109.3 C409.2,108.1 413,107.5 416.1,107.5 C419,107.5 422.3,108.1 425.9,109.3 C428.1,111 429.8,112.7 431,114.4 C432.2,116.1 432.4,118.2 431.7,120.6 C430.5,122 427.7,123.7 423.3,125.7 C418.9,127.6 416.5,128.7 416,129 C412.1,135.3 404,142.1 391.6,149.2 C379.2,156.4 371.2,163.2 367.5,169.8 C363.1,174.4 357.8,178.7 351.5,182.6 C345.2,186.5 338.5,189.8 331.5,192.4 C328.8,196.3 326.7,200.5 325.1,205 C323.5,209.5 322.2,214.6 321.3,220.1 C316,223 310.3,226 304.2,229.2 C298.1,232.3 292.2,233.9 286.4,233.9 L283.1,233.9 C278.2,232.5 273.6,230.4 269.1,227.9 C264.6,225.4 259.8,222.1 254.7,218.2 C254.7,214.1 255.5,209.7 257.1,205.3 C258.7,200.8 260.2,196.4 261.6,192 C261.6,185.2 260.3,174.3 257.8,159.2 C255.2,144.1 254,133.5 254,127.1 C254,122 254.1,118.3 254.4,116 C254.6,113.7 255.5,110.1 256.9,105.3 C258.3,100.4 261.9,97.4 267.7,96.2 C273.4,95 278.2,93.9 282.1,92.9 C282.6,89.5 283.9,87 285.9,85.3 C287.9,83.6 293.4,80.8 302.1,76.9 L309,79.1 C313.6,74 319.6,71.4 326.9,71.4 L326.9,55 C326.9,49.4 327,43.7 327.2,37.9 L327.2,33.5 C327.2,23.1 326.4,13.6 324.7,5.1 C325.6,2.7 326.9,1.1 328.3,0.4 L328.3,0.4 Z M329,3.3 C327.8,5.2 327.2,7.7 327.2,10.6 C327.2,12.6 327.7,15.7 328.7,20.1 C329.7,24.5 330.2,27.6 330.2,29.6 L340,28.5 C342.9,28.5 344.4,29.1 344.4,30.3 L347.3,30.3 C346.8,26.7 346.4,22.8 346,18.8 C345.6,14.8 344.7,11.5 343.3,8.8 C341.8,7.1 340.3,5.5 338.6,4 C336.9,2.6 335.2,1.8 333.5,1.8 C331.7,1.8 330.2,2.3 329,3.3 L329,3.3 Z M347.2,32.8 C344.3,32.1 341.4,31.7 338.5,31.7 C335.6,31.7 332.7,32.1 329.8,32.8 C329.3,35.7 329.1,37.9 329.1,39.4 C329.1,41.8 329.2,44.3 329.5,46.7 C329.7,49.1 330,51.6 330.2,54 L346.2,54 C346.4,54.5 346.9,55.1 347.5,55.8 C348.1,56.5 348.8,56.5 349.5,55.8 C349.7,54.6 349.9,52.5 349.9,49.6 C349.9,47.4 349.8,45.1 349.5,42.7 C349.2,40.3 349,37.8 348.8,35.4 L347.2,32.8 L347.2,32.8 Z M330.1,57.9 C329.8,61 329.7,63.5 329.7,65.2 C329.7,69.6 331.1,72.2 334.1,73.2 C334.4,74.9 335.3,76.4 337,77.6 C338.7,78.8 341.4,79.4 345,79.4 C347.9,79.2 350,79.1 351.2,79.1 C351.2,75 350.9,71.3 350.3,68.2 C349.7,65.1 349.1,61.8 348.7,58.4 C346,57.4 342.7,56.9 338.9,56.9 C336,56.8 333.1,57.2 330.1,57.9 L330.1,57.9 Z M330.1,73.6 C325.7,73.6 321.9,74.2 318.6,75.4 C315.3,76.6 312.7,78.9 310.8,82.3 C311.5,87.4 312.1,93.3 312.5,100 C312.9,106.7 313.1,113.9 313.1,121.7 L313.1,134.8 L314.5,137 L315.2,133.4 C316.4,131 317.7,129.5 319.2,128.8 C320.6,128.2 322.2,128.3 323.9,129 C326.3,129.5 327.8,131.6 328.3,135.2 C328.8,138.8 329.4,140.9 330.1,141.4 C331.8,138.2 332.6,134.1 332.6,129 C332.6,127.6 332.5,125.2 332.2,121.9 C332,118.6 331.8,116.1 331.8,114.4 C331.8,109 332.4,104.2 333.6,99.8 C334.8,95.4 335.9,91.5 336.9,88.1 C336.2,84.7 335.4,82 334.5,80.1 C333.8,78.2 332.3,76.1 330.1,73.6 L330.1,73.6 Z M308.3,80.9 C306.9,80.2 305.2,79.8 303.2,79.8 C301.7,79.8 300.3,80.1 298.8,80.7 C297.4,81.3 295.9,81.9 294.4,82.5 C293,83.1 291.6,84.7 290.2,87.4 C288.9,90.1 287.9,93 287.5,96.1 C291.1,111.9 294.8,127.6 298.4,143.1 C299.4,140.2 300.5,137.1 301.7,134 C302.7,133.5 303.8,132.9 305,132.3 C306.2,131.7 307.4,131.7 308.6,132.5 C309.6,131.8 310.1,130.6 310.1,128.9 C309.8,126.5 309.7,124 309.7,121.6 L300.2,124.5 C299.5,123.5 298.9,122.6 298.4,121.6 C300.3,121.6 302.5,121.2 304.8,120.5 C307.1,119.8 308.8,119.3 309.7,119 L308.3,80.9 L308.3,80.9 Z M339.2,81.6 C338.7,82.3 338.9,82.9 339.8,83.4 C340.6,83.9 341.1,84.3 341.1,84.5 C341.4,87.2 340.7,90.3 339.3,93.8 C337.8,97.3 337,99.7 336.8,100.9 C338.5,99.9 340.3,98.3 342.1,96 C343.9,93.7 345.9,91 348.1,87.8 C347.9,89.7 346.8,92.5 345,96.2 C343.2,99.8 342.3,101.9 342.3,102.4 C344.2,101.9 345.9,101.5 347.2,101.1 C348.5,100.7 349.6,99.8 350.3,98.4 C349.8,100.8 348,102.8 345,104.4 C342,106 339.1,107.5 336.4,108.9 L335.7,134.8 L347.3,132.6 C345.6,131.9 344.2,131.2 342.9,130.6 C341.7,130 340.6,128.9 339.6,127.5 C344.7,128.7 349.9,129.9 355.3,131.1 C351.4,127.7 348.7,124 347.3,120.2 C350,122.1 352.7,124 355.3,125.7 C354.1,112.1 352.9,98.4 351.7,84.5 C347.5,83.6 343.4,82.6 339.2,81.6 L339.2,81.6 Z M285.7,92.9 L287.2,88.9 L285.7,92.9 L285.7,92.9 Z M284.6,95.5 C283.6,95.2 282.4,95.1 281,95.1 C278.6,95.1 276.2,95.8 273.9,97.1 C271.6,98.4 269.6,100.3 267.9,102.7 L266.8,99.4 C263.2,99.7 260.7,101.5 259.5,104.9 C258.5,109.3 257.8,112.3 257.3,114 C261.4,117.1 265.7,118.4 270.1,117.6 L263.9,111.4 C264.6,111.9 265.5,112.4 266.4,112.8 C267.4,113.3 268.3,113.7 269.3,113.9 C268.1,110.5 268,108.3 268.9,107.3 C271.6,110.9 273.6,114.5 275.1,118.1 C276.6,121.6 278.5,127.3 281,135 C283.9,138.6 285.9,140.5 286.8,140.5 L287.5,138.7 C286.8,136.8 286.9,135.1 288,133.8 C289.1,132.5 290.6,131.3 292.6,130.3 L289,110.2 L284.6,95.5 L284.6,95.5 Z M425.6,112.2 C422.7,111.2 419.1,110.8 415,110.8 C405,110.8 396.4,113.7 389.1,119.5 C389.6,120.5 390.7,121.8 392.4,123.3 C394.1,124.9 395.1,126.5 395.3,128.2 C394.8,128.2 392.8,126.4 389.1,122.7 C385.7,123.2 382.1,124.2 378.3,125.6 C374.5,127.1 371.2,128.6 368.3,130.4 L367.6,133.3 C367.4,131.8 366.8,131.3 365.8,131.7 C364.8,132 363.5,132.9 361.8,134.1 C363,140.7 364.1,145.7 365.1,149.2 C366.1,152.7 367.5,156.4 369.5,160.3 C379,153.5 388.5,146.7 398.3,139.9 C398.1,138.4 397.9,137 397.9,135.5 L399.7,135.9 L400.8,134.1 C401.8,135.1 402.7,136 403.7,137 C404.9,136 407.8,133.2 412.5,128.4 C417.1,123.6 421.3,120.6 425.3,119.1 C425.5,118.6 426.3,118.3 427.5,118 C428.7,117.7 429.2,117.3 429,116.5 L425.6,112.2 L425.6,112.2 Z M257.3,118.1 C257.3,128 258,138.8 259.3,150.2 C260.6,161.6 262.5,173.3 264.9,185.2 C267.8,187.1 271.7,188.1 276.6,188.1 C280.2,188.1 284,187.3 287.9,185.7 C291.8,184.1 295.6,182.5 299.2,180.8 L295.9,188.4 C297.8,188.9 299.4,188.1 300.5,186 C301.6,183.9 302.7,182.9 304,182.9 C308.1,189 313.1,192 318.9,192 C311.9,189.3 306.4,184.8 302.5,178.5 C302.5,171.7 302.7,166.2 303.1,161.9 C303.5,157.6 304.5,153.5 306.2,149.3 C304.3,150 301.6,149.2 298.4,146.9 C295.2,144.6 293.4,143.4 293.1,143.4 C291.9,143.4 290.7,143.9 289.5,144.8 C285.1,144.8 281.8,142.6 279.7,138.2 C277.8,132.6 276.3,128.7 275.3,126.5 C275.3,122.9 273.5,121 269.8,121 C267.1,121.2 265.2,121.4 264,121.4 C263,121.4 262.2,121.1 261.5,120.7 C260.8,120.2 260.1,119.5 259.5,118.7 C258.6,118.2 258,117.8 257.3,118.1 L257.3,118.1 Z M319.9,131.2 L323.9,131.6 C323.7,131.3 323.1,131.2 322.1,131.2 L319.9,131.2 L319.9,131.2 Z M318.1,133.4 C316.2,136.1 315.7,139.1 316.7,142.5 C318.9,143.2 322,142.9 326.2,141.4 C327.9,138.2 327.2,136.2 324.2,135.2 C321.1,134.2 319.1,133.6 318.1,133.4 L318.1,133.4 Z M307.5,135.2 L306.4,134.9 L307.5,135.2 L307.5,135.2 Z M335.6,135.9 C335.6,139.8 334.2,142.7 331.4,144.7 C328.6,146.6 325.4,147.6 321.7,147.6 C318.3,147.6 315.5,147.1 313.3,146.1 C310.9,150 309.1,154 308,158.1 C306.9,162.2 306.4,167.1 306.4,172.7 C304.2,174.2 304,175.5 305.7,176.7 C308.6,180.1 311.6,182.9 314.6,185.1 C317.6,187.3 321.1,188.4 325,188.4 C335.4,185.7 344.3,182.5 351.6,178.7 C358.9,174.9 364.2,169.3 367.6,161.7 C366.2,159 365.1,156.7 364.5,154.6 C363.9,152.5 363.3,149.5 362.9,145.7 L361.8,144.3 C362.3,147.7 362.5,150.3 362.5,151.9 C362.5,153.4 362.2,154.5 361.8,155.2 C359.6,154.7 358.2,153.5 357.4,151.6 C356.9,146.7 356.4,143.6 356,142.1 C356.7,137.2 354.4,134.8 349.1,134.8 C344.5,135.3 340,135.7 335.6,135.9 L335.6,135.9 Z M291.5,136.7 C290.5,136.5 289.8,136.7 289.3,137.4 C288.8,138.1 288.8,138.8 289.3,139.6 C292,140.1 293.4,139.5 293.7,137.8 C292.7,137.1 292,136.7 291.5,136.7 L291.5,136.7 Z M357.8,136.7 C357.6,139.8 357.6,142.3 357.8,144.2 C358,146 358.7,147.3 359.6,148 L357.8,136.7 L357.8,136.7 Z M303.2,137.1 C301.7,139.5 301.4,141.6 302.1,143.3 L306.8,143.7 C309.5,142.5 310.7,141.5 310.4,140.8 C311.1,138.6 310.6,137.5 308.9,137.5 C305.3,137.4 303.4,137.3 303.2,137.1 L303.2,137.1 Z M280.2,192.5 L293.7,187 C293.7,188.9 292.3,190.2 289.5,190.8 C286.7,191.4 283.6,192 280.2,192.5 L280.2,192.5 Z M297,193.6 L295.9,191 L294.8,191.4 C293.1,195.8 291,201.1 288.4,207.4 C285.9,213.7 284.6,218.9 284.6,223.1 C285.3,222.1 286.6,219.5 288.2,215.3 C289.9,211 291.1,208.3 291.8,207.1 C291.6,210 290.8,213.2 289.4,216.8 C288.1,220.3 286.5,223.8 284.8,227.2 C283.6,227.2 282.5,227.1 281.5,226.9 C281.5,222.5 283,216.3 286.1,208.1 C289.1,200 290.9,195.1 291.4,193.4 L274.3,197 C271.1,196.5 268,196 264.8,195.5 C263.1,200.4 261.7,204.5 260.6,207.9 C259.5,211.3 258.9,214.5 258.9,217.4 C264.3,221 269.2,224 273.9,226.2 C278.5,228.4 283.4,229.5 288.5,229.5 C290.4,229.5 291.9,229.4 292.9,229.1 C292.7,228.1 292.5,227.2 292.5,226.2 L292.5,224 C292.5,220.1 294,213.5 297.1,204.2 C300.1,194.8 301.8,189.3 302,187.6 C300.8,187.8 299.7,188.9 298.7,190.7 C297.8,192.3 297.2,193.3 297,193.6 L297,193.6 Z M305,190.3 C300.9,200.2 298.2,207.3 296.8,211.4 C295.5,215.5 294.8,220.8 294.8,227.1 C296,227.8 297.1,228.2 298.1,228.2 C299.8,228.2 301.6,227.5 303.6,226.2 C305.5,224.9 307.4,223.6 309.1,222.4 C309.1,218.8 310.1,213.9 312,207.8 C313.9,201.7 315,197.7 315.3,195.8 L305,190.3 L305,190.3 Z M310.8,220.9 L312.3,220.9 C312.8,217.3 314.3,212.4 316.9,206.3 C319.4,200.2 320.8,196.6 321.1,195.4 C316.7,202.9 313.2,211.4 310.8,220.9 L310.8,220.9 Z M325,195.7 C324.5,197.2 324,198.5 323.6,199.7 L325,195.7 L325,195.7 Z M320.6,205.9 C319.2,208.3 318.1,210.5 317.5,212.5 C316.9,214.4 316.6,216.4 316.6,218.3 C317.6,216.9 318.4,214.7 319,211.7 C319.6,208.7 320.2,206.9 320.6,205.9 L320.6,205.9 Z M317,121 C317.5,119.3 319,118.5 321.7,118.5 C326.1,118.5 328.5,118.4 329,118.1 C326.8,120.5 324,121.7 320.6,121.7 C319.7,121.7 318.5,121.5 317,121 L317,121 Z M370.6,140.7 L368.8,137.1 L370.6,140.7 L370.6,140.7 Z M286.8,124.3 L289.3,123.6 L286.8,124.3 L286.8,124.3 Z M281.7,124.3 L283.2,123.9 L281.7,124.3 L281.7,124.3 Z" id="path690_1_"></path>
            <path d="M95.1,85 C99.5,85 102,85.5 102.7,86.4 C103,88.4 102.9,91.2 102.5,95 C102.2,98.8 102,100.8 102,101 C104.9,108.1 106.7,112.6 107.5,114.7 C108.2,116.8 108.6,118.6 108.6,120.3 C108.6,122.7 108,125.3 106.8,128 C105.6,130.7 104.4,136.3 103.3,145 C102.2,153.6 100,160.7 96.7,166.3 C93.4,171.9 90.4,177.1 87.6,181.8 C84.8,186.6 81.5,190.7 77.6,194.4 L77.6,209.5 C77.6,214.5 77.7,219.4 78,224.3 L61.2,234.5 C56.3,235.2 51.6,235.6 47,235.6 C36.3,235.6 27,233.7 18.9,229.8 L17.4,200.3 C11.3,193 6.9,184.2 4.1,173.9 C1.4,163.4 0,152.9 0,142.2 C0,137.6 0.1,134.2 0.4,132 C3.1,125.7 5.4,120.4 7.3,116.1 C9.3,111.8 12.9,109.7 18.2,109.7 C21.4,110.9 24,109.6 26.2,105.7 C28.4,101.8 30.6,99.8 32.8,99.8 C37.2,99.3 40.3,100.4 42.3,103.1 C44.5,100.7 46.6,98.6 48.5,96.7 C50.4,94.9 52.8,94.3 55.4,95.1 C59.3,95.1 62.1,95.7 63.8,96.9 C64.8,98.4 65.9,99.7 67.1,100.9 C68.1,99.2 69.3,98 70.7,97.4 C72.2,96.8 74.2,96.5 76.9,96.5 C78.4,96.5 80.5,96.8 83.5,97.2 C85.4,93.8 87.1,90.9 88.6,88.5 C90,86.2 92.2,85 95.1,85 L95.1,85 Z M93.7,87.9 C90.8,89.6 88.8,91.8 87.7,94.5 C86.6,97.2 86.1,100.3 86.1,104 C86.1,107.4 86.3,110.1 86.8,112 C87.3,113.9 87.6,115.5 87.7,116.5 C87.8,117.6 88.8,118.3 90.6,118.5 C92.4,118.7 93.3,119.3 93.3,120.3 L86.7,120.3 C86.2,121.8 85.5,123.8 84.5,126.3 C83.5,128.9 83.3,131 83.8,132.7 C84,134.4 84.3,136.1 84.5,137.8 L82.7,136.7 C81.5,138.9 80.4,141 79.4,142.9 C82.5,146.1 85.2,148.9 87.4,151.3 C89.6,153.7 90.9,156.3 91.4,158.9 C90.4,158.4 89.1,157 87.4,154.5 C85.7,152.1 84.5,150.7 83.8,150.5 C85.5,153.4 86.9,155.9 88,157.8 C89.1,159.7 89.6,161.7 89.6,163.6 L85.6,157 C84.4,155.1 83,152.9 81.6,150.6 C80.1,148.3 78.6,146.9 76.8,146.4 C75.6,147.9 73.8,148.6 71.3,148.6 C69.1,148.4 67.5,148.3 66.6,148.3 C64.2,148.3 62.8,149.1 62.6,150.8 C61.4,153.5 59.1,154.9 55.7,155.2 C52.3,155.5 50,155.7 48.8,155.9 C46.4,159.1 45.2,162.6 45.2,166.5 C45.2,169.6 45.8,172.6 46.8,175.2 C47.9,177.9 49.8,181.7 52.5,186.5 C54.2,188 56,189 58,189.6 C60,190.2 62.4,190.5 65.3,190.5 L73.7,189.8 C75.9,188.6 77.9,187.2 79.7,185.6 C81.5,184 83.4,181.8 85.4,178.9 C91.7,171.4 96.4,160.5 99.6,146.3 C102.8,132.1 104.6,124 105.1,122.1 C104.6,121.6 103.6,121.2 102.2,120.8 C100.7,120.4 100.3,119.5 100.7,118.1 C100.9,117.4 101.5,116.9 102.4,116.6 C103.2,116.4 104,116.1 104.8,115.9 C103.3,115.7 102,115.3 100.8,114.8 L104.8,114.1 C103.6,110.5 102.6,107.4 101.9,105 C101.2,102.6 99.6,100.7 97.2,99.5 C97.2,97.3 97.3,95.1 97.4,92.9 C97.5,90.7 98.3,88.8 99.8,87.1 C96.1,87.1 94.2,87.4 93.7,87.9 L93.7,87.9 Z M100.6,89.7 L99.9,96.6 C99.9,95.4 100.1,94 100.5,92.4 C100.8,90.8 100.8,90 100.6,89.7 L100.6,89.7 Z M54.7,97.7 C50.1,97.7 46.9,100.4 45.2,105.7 C45.2,110.1 45.3,116.9 45.6,126.1 C45.8,135.3 46,142 46,146.1 L47.1,146.5 C47.6,143.1 48.3,141.1 49.3,140.5 C50.3,139.9 51.7,139.6 53.7,139.6 C55.2,139.6 56.3,140.1 57,141.1 C58.5,144.5 59.2,146.9 59.2,148.4 C59.2,148.6 58.9,149.5 58.5,150.9 L60.7,149.8 L61.8,129 C61.8,126.3 62.5,122 63.8,116.1 C65.1,110.2 65.8,106.3 65.8,104.6 C63.7,99.1 60,96.8 54.7,97.7 L54.7,97.7 Z M70.7,101.7 C68.8,108.5 67.2,114.3 66,119.2 C64.8,124.1 64.4,128.7 64.9,133.1 L70.7,132.7 C72.2,134.2 73.1,136.1 73.6,138.6 C74.1,141 74.5,142.9 74.7,144.1 C77.1,142.2 79,139.4 80.2,135.9 C81.4,132.4 82,128.8 82,125.2 C84.4,123 85.6,120.3 85.6,117.2 C85.6,115.5 85,112.7 83.8,108.6 C82.6,104.6 82.2,101.7 82.7,100 C79.8,99.8 77.6,99.6 76.1,99.6 C73.5,99.5 71.7,100.3 70.7,101.7 L70.7,101.7 Z M32.8,103.2 C30.9,103.9 29.3,105.3 28,107.4 C26.7,109.5 25.7,111.5 24.7,113.4 C27.9,118.5 30,124.2 31.1,130.4 C32.2,136.6 32.8,143.8 32.8,152.1 L33.9,153.2 L35,145.5 C35.2,143.8 36.6,142.9 39,142.8 C41.4,142.7 43,142.6 43.7,142.6 L43.3,133.1 C41.4,133.6 39.8,134.1 38.6,134.6 C37.4,135.1 36.3,134.8 35.3,133.9 C35.1,132.4 36.2,131.6 38.8,131.4 C41.3,131.2 42.9,130.8 43.3,130.3 L42.2,107 C41.3,103.9 38.1,102.7 32.8,103.2 L32.8,103.2 Z M21.1,113.4 C19.7,112.9 18.3,112.7 17.1,112.7 C14.4,112.7 12.1,113.8 10.2,116 C9.5,118 9.1,119.6 9.1,121.1 C9.1,123.8 10.1,126.9 12,130.4 C13.9,133.9 15.6,136.9 17.1,139.3 C18.6,141.7 19.7,143.9 20.4,145.7 C21.1,147.5 22.2,148.6 23.7,148.8 L23.7,144.1 C24.4,141.4 26.5,140.3 29.9,140.8 C29.2,136.4 28.7,133.9 28.4,133.1 L23.6,134.6 C22.9,134.8 22,134.8 21.1,134.4 C20.1,134 20,133.4 20.7,132.4 C24.8,132.9 27.4,132.1 28.4,129.9 C26.7,123 24.3,117.5 21.1,113.4 L21.1,113.4 Z M8,123.6 C6.8,123.8 6,124.6 5.5,126 C5,127.3 4.7,128.3 4.4,128.8 C6.3,129.8 8.3,130.7 10.3,131.7 L8,123.6 L8,123.6 Z M4.4,132 C3.2,133 2.6,134.5 2.6,136.7 C2.8,138.4 3,139.6 3,140.3 L14.7,139.2 C14.7,137 13.2,135.6 10.2,134.8 C7,134.2 5.1,133.2 4.4,132 L4.4,132 Z M65.6,136.4 C63.7,137.6 63.2,139.7 64.1,142.6 C65.6,143.1 66.9,143.3 68.1,143.3 C69.8,143.3 71,142.9 71.7,142.2 C72.7,139.8 72.2,138.3 70.2,137.8 C68.4,137.3 66.8,136.9 65.6,136.4 L65.6,136.4 Z M2.5,149.8 C5.5,166.4 8,177.2 10,182.5 C12,187.7 15.5,192.5 20.4,196.9 C23.1,198.3 26.3,199.1 29.9,199.1 C35.2,199.1 40.1,197.5 44.5,194.4 C46.4,196.3 47.4,199.1 47.4,202.8 C47.4,204.7 47.3,206.9 47,209.4 C46.8,211.8 46.6,213.2 46.6,213.4 C46.6,215.8 46.9,217.5 47.3,218.5 C47.8,217.8 48,216.2 48,213.8 C48,208.4 48.2,205.4 48.7,204.7 C49.4,207.4 49.8,209.9 49.8,212.3 C49.8,214.2 49.7,216.1 49.6,217.9 C49.5,219.7 49.4,221.5 49.4,223.2 C49.4,226.8 49.7,229.6 50.5,231.6 L52.7,231.2 C51.7,228.3 51.1,225.6 50.9,223.2 C50.7,220.8 50.5,217.8 50.5,214.5 C50.5,210.9 50.6,206.7 50.9,202.1 C51.1,197.5 51.3,194.7 51.3,193.7 L48.8,203.9 C48.1,202.7 47.7,201.5 47.7,200.3 C47.9,197.4 48.3,194.3 48.8,191.2 L42.2,174.8 L44.4,160.6 L43,160.6 C40.8,165 38.7,169.2 36.8,173.4 L40.1,160.6 C37.4,161.1 34.9,159.7 32.5,156.4 C30.1,153.1 27.5,152 24.8,152.9 C22.6,152.7 20.7,151.3 19.2,148.7 C17.6,146.1 16.5,144.3 15.7,143 C12.3,142.5 9.6,142.3 7.7,142.3 C3.6,142.3 1.5,143.5 1.5,145.9 C1.4,147.1 1.8,148.4 2.5,149.8 L2.5,149.8 Z M51,142.5 C50.3,142.5 49.8,143.1 49.6,144.3 C49.3,145.5 49.1,146.2 48.9,146.5 C48.9,148 49.6,148.9 50.9,149.2 C52.2,149.6 53.3,149.8 54,149.8 C56.2,148.4 57.2,147.4 56.9,146.9 C57.9,145 57.5,143.8 55.8,143.4 C54.1,143.1 52.5,142.8 51,142.5 L51,142.5 Z M39.4,144.7 L41.6,144.7 L39.4,144.7 L39.4,144.7 Z M26.2,145.5 L26.2,148.1 L27.6,148.1 C28.3,147.6 29.1,147 29.8,146.3 C29.6,145.7 28.4,145.5 26.2,145.5 L26.2,145.5 Z M36.8,146.9 L35.7,152.7 C35.9,153.9 36.8,154.5 38.2,154.5 C40.4,154.2 42,154.1 43,154.1 C43.7,154.1 44.4,153.7 45,152.8 C45.6,152 45.7,151.3 45.2,150.8 C45.2,148.4 44.1,147.2 41.9,147.2 C39,147.3 37.3,147.2 36.8,146.9 L36.8,146.9 Z M53.9,192.1 C53.9,194 53.8,197.4 53.5,202.1 C53.3,206.9 53.2,210.4 53.2,212.9 C53.2,217 53.4,220.4 53.7,222.9 C54.1,225.4 54.7,228.1 55.7,230.7 C57.9,230.7 60,230.1 62.1,228.9 C64.1,227.7 65.8,226.7 67,226 C66.8,224.8 66.6,223 66.6,220.5 C66.6,218.6 66.9,215.6 67.3,211.7 C67.8,207.8 68,204.9 68,203 C68,201.1 67.9,199.6 67.6,198.6 C61.5,198.6 57.9,197.6 56.7,195.7 C57.2,194.5 58.3,194.3 60,195.1 C61.7,196 63,196.1 64,195.7 C63.5,195.5 62.6,195.1 61.3,194.8 C60.1,194.5 57.6,193.6 53.9,192.1 L53.9,192.1 Z M27.3,203.8 C29.5,204.3 32.4,204 35.9,202.9 C39.4,201.8 41.7,201.3 42.6,201.3 C38.7,205.2 33.6,207.1 27.3,207.1 C26.1,207.1 25.4,206.4 25.1,204.9 C24.9,203.5 23.8,203.1 21.8,203.8 L21.8,223.8 L23.6,227.8 C29.9,229 36.2,230.2 42.6,231.4 C44.5,231.4 46,231.3 47,231 C46,226.4 45.4,221.9 45.2,217.5 C45,213.1 44.8,208 44.8,202.2 L44.8,197.8 C40.7,200 37.5,201.5 35.3,202.3 C33.2,203.4 30.5,203.8 27.3,203.8 L27.3,203.8 Z M70,201.6 L70.7,200.2 L70,201.6 L70,201.6 Z M70,204.9 L70.7,203.8 L70,204.9 L70,204.9 Z M70,206.7 C70,207.9 69.8,210 69.3,212.9 C68.8,215.8 68.6,218.1 68.6,219.8 C68.6,220.8 68.8,222.2 69.3,224.2 L70.7,224.2 C70.7,221 70.6,217.6 70.3,213.8 C70.1,210 70,207.7 70,206.7 L70,206.7 Z M66.3,126.1 C67.3,126.6 68.7,126.8 70.7,126.8 L76.5,126.8 C75.5,128 74.3,128.6 72.9,128.6 C70.5,128.1 68.5,127.9 67,127.9 L66.3,126.1 L66.3,126.1 Z M50.3,130.5 C54.4,130 57.6,129.8 59.8,129.8 C58.6,132.2 56.4,133.2 53.2,132.7 C52.7,133 52.1,132.9 51.4,132.5 C50.6,132.2 50.3,131.5 50.3,130.5 L50.3,130.5 Z" id="path606_1_"></path>
        </g>
    </g>
</svg>