<?xml version="1.0" encoding="UTF-8" standalone="no"?>
<svg width="298px" height="158px" viewBox="0 0 298 158" version="1.1" xmlns="http://www.w3.org/2000/svg" xmlns:xlink="http://www.w3.org/1999/xlink">
    <!-- Generator: Sketch 3.8.1 (29687) - http://www.bohemiancoding.com/sketch -->
    <title>php</title>
    <desc>Created with Sketch.</desc>
    <defs>
        <radialGradient cx="25.5273232%" cy="4.62090951%" fx="25.5273232%" fy="4.62090951%" r="50%" id="radialGradient-1">
            <stop stop-color="#DDDCE9" offset="0%"></stop>
            <stop stop-color="#5664A3" offset="37%"></stop>
            <stop stop-color="#000000" offset="100%"></stop>
        </radialGradient>
    </defs>
    <g id="Page-1" stroke="none" stroke-width="1" fill="none" fill-rule="evenodd">
        <g id="php" transform="translate(3.000000, 3.000000)">
            <ellipse id="ellipse3860" stroke="url(#radialGradient-1)" stroke-width="5.5" fill="#6C7EB7" cx="146" cy="76" rx="146" ry="76"></ellipse>
            <path d="M41,121 L57,40 L94,40 C110,41 118,49 118,63 C118,87 99,101 82,100 L64,100 L60,121 L41,121 L41,121 Z M68,85 L73,55 L86,55 C93,55 98,58 98,64 C97,81 89,84 80,85 L68,85 L68,85 Z" id="p" stroke="#FFFFFF" stroke-width="2" fill="#000000"></path>
            <path d="M112,100 L128,19 L147,19 L143,40 L161,40 C177,41 183,49 181,59 L174,100 L154,100 L161,63 C162,58 162,55 155,55 L140,55 L131,100 L112,100 L112,100 Z" id="h" stroke="#FFFFFF" stroke-width="2" fill="#000000"></path>
            <g id="p2" transform="translate(175.000000, 40.000000)" stroke="#FFFFFF" stroke-width="2" fill="#000000">
                <path d="M0,81 L16,0 L53,0 C69,1 77,9 77,23 C77,47 58,61 41,60 L23,60 L19,81 L0,81 L0,81 Z M27,45 L32,15 L45,15 C52,15 57,18 57,24 C56,41 48,44 39,45 L27,45 L27,45 Z" id="p"></path>
            </g>
            <rect id="Rectangle-1" x="21" y="154" width="257" height="81"></rect>
        </g>
    </g>
</svg>